<mxfile host="app.diagrams.net" agent="Mozilla/5.0 (Windows NT 10.0; Win64; x64) AppleWebKit/537.36 (KHTML, like Gecko) Chrome/133.0.0.0 Safari/537.36" version="26.0.11">
  <diagram name="Page-1" id="yfRAYN0VTnzwabBsyVr_">
    <mxGraphModel dx="1750" dy="2152" grid="1" gridSize="10" guides="1" tooltips="1" connect="1" arrows="1" fold="1" page="1" pageScale="1" pageWidth="1920" pageHeight="1200" math="0" shadow="0">
      <root>
        <mxCell id="0" />
        <mxCell id="1" parent="0" />
        <mxCell id="A00SN344eLhmjXgvaw5U-19" style="shape=connector;rounded=0;orthogonalLoop=1;jettySize=auto;html=1;exitX=0.25;exitY=0;exitDx=0;exitDy=0;entryX=1;entryY=0.5;entryDx=0;entryDy=0;strokeColor=default;align=center;verticalAlign=middle;fontFamily=Helvetica;fontSize=11;fontColor=default;labelBackgroundColor=default;startFill=0;endArrow=none;" edge="1" parent="1" source="g248kin0QG420hahuXNO-2" target="A00SN344eLhmjXgvaw5U-1">
          <mxGeometry relative="1" as="geometry" />
        </mxCell>
        <mxCell id="A00SN344eLhmjXgvaw5U-20" style="edgeStyle=orthogonalEdgeStyle;shape=connector;rounded=0;orthogonalLoop=1;jettySize=auto;html=1;exitX=0;exitY=0;exitDx=0;exitDy=0;entryX=1;entryY=0.5;entryDx=0;entryDy=0;strokeColor=default;align=center;verticalAlign=middle;fontFamily=Helvetica;fontSize=11;fontColor=default;labelBackgroundColor=default;startFill=0;endArrow=none;" edge="1" parent="1" source="g248kin0QG420hahuXNO-2" target="A00SN344eLhmjXgvaw5U-2">
          <mxGeometry relative="1" as="geometry" />
        </mxCell>
        <mxCell id="A00SN344eLhmjXgvaw5U-21" style="shape=connector;rounded=0;orthogonalLoop=1;jettySize=auto;html=1;exitX=0;exitY=0.75;exitDx=0;exitDy=0;entryX=0.5;entryY=0;entryDx=0;entryDy=0;strokeColor=default;align=center;verticalAlign=middle;fontFamily=Helvetica;fontSize=11;fontColor=default;labelBackgroundColor=default;startFill=0;endArrow=none;" edge="1" parent="1" source="g248kin0QG420hahuXNO-2" target="A00SN344eLhmjXgvaw5U-3">
          <mxGeometry relative="1" as="geometry" />
        </mxCell>
        <mxCell id="A00SN344eLhmjXgvaw5U-22" style="edgeStyle=orthogonalEdgeStyle;shape=connector;rounded=0;orthogonalLoop=1;jettySize=auto;html=1;exitX=0.25;exitY=1;exitDx=0;exitDy=0;strokeColor=default;align=center;verticalAlign=middle;fontFamily=Helvetica;fontSize=11;fontColor=default;labelBackgroundColor=default;startFill=0;endArrow=none;" edge="1" parent="1" source="g248kin0QG420hahuXNO-2" target="A00SN344eLhmjXgvaw5U-4">
          <mxGeometry relative="1" as="geometry" />
        </mxCell>
        <mxCell id="A00SN344eLhmjXgvaw5U-149" style="shape=connector;rounded=0;orthogonalLoop=1;jettySize=auto;html=1;exitX=0;exitY=1;exitDx=0;exitDy=0;entryX=1;entryY=0;entryDx=0;entryDy=0;strokeColor=default;align=center;verticalAlign=middle;fontFamily=Helvetica;fontSize=11;fontColor=default;labelBackgroundColor=default;startFill=0;endArrow=none;" edge="1" parent="1" source="g248kin0QG420hahuXNO-2" target="A00SN344eLhmjXgvaw5U-148">
          <mxGeometry relative="1" as="geometry" />
        </mxCell>
        <mxCell id="g248kin0QG420hahuXNO-2" value="Departments" style="rounded=0;whiteSpace=wrap;html=1;" parent="1" vertex="1">
          <mxGeometry x="320" y="-880" width="120" height="60" as="geometry" />
        </mxCell>
        <mxCell id="A00SN344eLhmjXgvaw5U-1" value="Name" style="ellipse;whiteSpace=wrap;html=1;" vertex="1" parent="1">
          <mxGeometry x="180" y="-1020" width="100" height="80" as="geometry" />
        </mxCell>
        <mxCell id="A00SN344eLhmjXgvaw5U-2" value="&lt;u&gt;Dep_ID&lt;/u&gt;" style="ellipse;whiteSpace=wrap;html=1;" vertex="1" parent="1">
          <mxGeometry x="130" y="-920" width="100" height="80" as="geometry" />
        </mxCell>
        <mxCell id="A00SN344eLhmjXgvaw5U-3" value="OfficeNumber" style="ellipse;whiteSpace=wrap;html=1;" vertex="1" parent="1">
          <mxGeometry x="80" y="-820" width="100" height="80" as="geometry" />
        </mxCell>
        <mxCell id="A00SN344eLhmjXgvaw5U-4" value="OfficePhone" style="ellipse;whiteSpace=wrap;html=1;" vertex="1" parent="1">
          <mxGeometry x="310" y="-740" width="100" height="80" as="geometry" />
        </mxCell>
        <mxCell id="A00SN344eLhmjXgvaw5U-17" style="edgeStyle=orthogonalEdgeStyle;rounded=0;orthogonalLoop=1;jettySize=auto;html=1;exitX=0;exitY=0.5;exitDx=0;exitDy=0;endArrow=none;startFill=0;" edge="1" parent="1" source="A00SN344eLhmjXgvaw5U-5" target="g248kin0QG420hahuXNO-2">
          <mxGeometry relative="1" as="geometry" />
        </mxCell>
        <mxCell id="A00SN344eLhmjXgvaw5U-18" style="edgeStyle=orthogonalEdgeStyle;rounded=0;orthogonalLoop=1;jettySize=auto;html=1;exitX=1;exitY=0.5;exitDx=0;exitDy=0;endArrow=none;startFill=0;" edge="1" parent="1" source="A00SN344eLhmjXgvaw5U-5" target="A00SN344eLhmjXgvaw5U-11">
          <mxGeometry relative="1" as="geometry" />
        </mxCell>
        <mxCell id="A00SN344eLhmjXgvaw5U-5" value="Manages" style="rhombus;whiteSpace=wrap;html=1;" vertex="1" parent="1">
          <mxGeometry x="520" y="-990" width="80" height="80" as="geometry" />
        </mxCell>
        <mxCell id="A00SN344eLhmjXgvaw5U-6" value="&lt;u&gt;Ins_ID&lt;/u&gt;" style="ellipse;whiteSpace=wrap;html=1;" vertex="1" parent="1">
          <mxGeometry x="860" y="-970" width="100" height="80" as="geometry" />
        </mxCell>
        <mxCell id="A00SN344eLhmjXgvaw5U-7" value="Birthday" style="ellipse;whiteSpace=wrap;html=1;" vertex="1" parent="1">
          <mxGeometry x="560" y="-790" width="100" height="80" as="geometry" />
        </mxCell>
        <mxCell id="A00SN344eLhmjXgvaw5U-8" value="Name" style="ellipse;whiteSpace=wrap;html=1;" vertex="1" parent="1">
          <mxGeometry x="710" y="-750" width="100" height="80" as="geometry" />
        </mxCell>
        <mxCell id="A00SN344eLhmjXgvaw5U-10" value="Sex" style="ellipse;whiteSpace=wrap;html=1;" vertex="1" parent="1">
          <mxGeometry x="500" y="-890" width="100" height="80" as="geometry" />
        </mxCell>
        <mxCell id="A00SN344eLhmjXgvaw5U-40" style="edgeStyle=orthogonalEdgeStyle;shape=connector;rounded=0;orthogonalLoop=1;jettySize=auto;html=1;exitX=0;exitY=0.5;exitDx=0;exitDy=0;strokeColor=default;align=center;verticalAlign=middle;fontFamily=Helvetica;fontSize=11;fontColor=default;labelBackgroundColor=default;startFill=0;endArrow=none;" edge="1" parent="1" source="A00SN344eLhmjXgvaw5U-11" target="A00SN344eLhmjXgvaw5U-10">
          <mxGeometry relative="1" as="geometry" />
        </mxCell>
        <mxCell id="A00SN344eLhmjXgvaw5U-41" style="edgeStyle=orthogonalEdgeStyle;shape=connector;rounded=0;orthogonalLoop=1;jettySize=auto;html=1;exitX=0;exitY=1;exitDx=0;exitDy=0;strokeColor=default;align=center;verticalAlign=middle;fontFamily=Helvetica;fontSize=11;fontColor=default;labelBackgroundColor=default;startFill=0;endArrow=none;" edge="1" parent="1" source="A00SN344eLhmjXgvaw5U-11" target="A00SN344eLhmjXgvaw5U-7">
          <mxGeometry relative="1" as="geometry" />
        </mxCell>
        <mxCell id="A00SN344eLhmjXgvaw5U-42" style="edgeStyle=orthogonalEdgeStyle;shape=connector;rounded=0;orthogonalLoop=1;jettySize=auto;html=1;exitX=0.75;exitY=1;exitDx=0;exitDy=0;strokeColor=default;align=center;verticalAlign=middle;fontFamily=Helvetica;fontSize=11;fontColor=default;labelBackgroundColor=default;startFill=0;endArrow=none;" edge="1" parent="1" source="A00SN344eLhmjXgvaw5U-11" target="A00SN344eLhmjXgvaw5U-8">
          <mxGeometry relative="1" as="geometry" />
        </mxCell>
        <mxCell id="A00SN344eLhmjXgvaw5U-43" style="shape=connector;rounded=0;orthogonalLoop=1;jettySize=auto;html=1;exitX=1;exitY=0;exitDx=0;exitDy=0;entryX=0;entryY=0.5;entryDx=0;entryDy=0;strokeColor=default;align=center;verticalAlign=middle;fontFamily=Helvetica;fontSize=11;fontColor=default;labelBackgroundColor=default;startFill=0;endArrow=none;" edge="1" parent="1" source="A00SN344eLhmjXgvaw5U-11" target="A00SN344eLhmjXgvaw5U-6">
          <mxGeometry relative="1" as="geometry" />
        </mxCell>
        <mxCell id="A00SN344eLhmjXgvaw5U-59" style="edgeStyle=orthogonalEdgeStyle;shape=connector;rounded=0;orthogonalLoop=1;jettySize=auto;html=1;exitX=1;exitY=1;exitDx=0;exitDy=0;entryX=0;entryY=0.5;entryDx=0;entryDy=0;strokeColor=default;align=center;verticalAlign=middle;fontFamily=Helvetica;fontSize=11;fontColor=default;labelBackgroundColor=default;startFill=0;endArrow=none;" edge="1" parent="1" source="A00SN344eLhmjXgvaw5U-11" target="A00SN344eLhmjXgvaw5U-53">
          <mxGeometry relative="1" as="geometry" />
        </mxCell>
        <mxCell id="A00SN344eLhmjXgvaw5U-75" style="edgeStyle=orthogonalEdgeStyle;shape=connector;rounded=0;orthogonalLoop=1;jettySize=auto;html=1;exitX=0.25;exitY=1;exitDx=0;exitDy=0;entryX=1;entryY=0.5;entryDx=0;entryDy=0;strokeColor=default;align=center;verticalAlign=middle;fontFamily=Helvetica;fontSize=11;fontColor=default;labelBackgroundColor=default;startFill=0;endArrow=none;" edge="1" parent="1" source="A00SN344eLhmjXgvaw5U-11" target="A00SN344eLhmjXgvaw5U-74">
          <mxGeometry relative="1" as="geometry" />
        </mxCell>
        <mxCell id="A00SN344eLhmjXgvaw5U-11" value="Instructor" style="rounded=0;whiteSpace=wrap;html=1;" vertex="1" parent="1">
          <mxGeometry x="670" y="-870" width="120" height="60" as="geometry" />
        </mxCell>
        <mxCell id="A00SN344eLhmjXgvaw5U-12" value="&lt;span id=&quot;docs-internal-guid-3f4176cd-7fff-1d77-9f5c-07f159ecbebb&quot;&gt;&lt;span style=&quot;font-size: 11pt; color: rgb(0, 0, 0); background-color: transparent; font-variant-numeric: normal; font-variant-east-asian: normal; font-variant-alternates: normal; font-variant-position: normal; font-variant-emoji: normal; vertical-align: baseline; white-space-collapse: preserve;&quot;&gt;&lt;font face=&quot;Helvetica&quot;&gt;Qualifications&lt;/font&gt;&lt;/span&gt;&lt;/span&gt;" style="rounded=0;whiteSpace=wrap;html=1;" vertex="1" parent="1">
          <mxGeometry x="1120" y="-830" width="120" height="60" as="geometry" />
        </mxCell>
        <mxCell id="A00SN344eLhmjXgvaw5U-39" style="shape=connector;rounded=0;orthogonalLoop=1;jettySize=auto;html=1;exitX=0;exitY=0.5;exitDx=0;exitDy=0;entryX=0.75;entryY=0;entryDx=0;entryDy=0;strokeColor=default;align=center;verticalAlign=middle;fontFamily=Helvetica;fontSize=11;fontColor=default;labelBackgroundColor=default;startFill=0;endArrow=none;" edge="1" parent="1" source="A00SN344eLhmjXgvaw5U-23" target="A00SN344eLhmjXgvaw5U-11">
          <mxGeometry relative="1" as="geometry" />
        </mxCell>
        <mxCell id="A00SN344eLhmjXgvaw5U-23" value="StartDate" style="ellipse;whiteSpace=wrap;html=1;" vertex="1" parent="1">
          <mxGeometry x="780" y="-1060" width="100" height="80" as="geometry" />
        </mxCell>
        <mxCell id="A00SN344eLhmjXgvaw5U-132" style="edgeStyle=orthogonalEdgeStyle;shape=connector;rounded=0;orthogonalLoop=1;jettySize=auto;html=1;exitX=1;exitY=0;exitDx=0;exitDy=0;entryX=0.5;entryY=0;entryDx=0;entryDy=0;strokeColor=default;align=center;verticalAlign=middle;fontFamily=Helvetica;fontSize=11;fontColor=default;labelBackgroundColor=default;startFill=0;endArrow=none;" edge="1" parent="1" source="A00SN344eLhmjXgvaw5U-44" target="A00SN344eLhmjXgvaw5U-131">
          <mxGeometry relative="1" as="geometry" />
        </mxCell>
        <mxCell id="A00SN344eLhmjXgvaw5U-133" style="edgeStyle=orthogonalEdgeStyle;shape=connector;rounded=0;orthogonalLoop=1;jettySize=auto;html=1;exitX=1;exitY=1;exitDx=0;exitDy=0;strokeColor=default;align=center;verticalAlign=middle;fontFamily=Helvetica;fontSize=11;fontColor=default;labelBackgroundColor=default;startFill=0;endArrow=none;" edge="1" parent="1" source="A00SN344eLhmjXgvaw5U-44" target="A00SN344eLhmjXgvaw5U-130">
          <mxGeometry relative="1" as="geometry" />
        </mxCell>
        <mxCell id="A00SN344eLhmjXgvaw5U-134" style="edgeStyle=orthogonalEdgeStyle;shape=connector;rounded=0;orthogonalLoop=1;jettySize=auto;html=1;exitX=0.25;exitY=1;exitDx=0;exitDy=0;entryX=0.5;entryY=0;entryDx=0;entryDy=0;strokeColor=default;align=center;verticalAlign=middle;fontFamily=Helvetica;fontSize=11;fontColor=default;labelBackgroundColor=default;startFill=0;endArrow=none;" edge="1" parent="1" source="A00SN344eLhmjXgvaw5U-44" target="A00SN344eLhmjXgvaw5U-102">
          <mxGeometry relative="1" as="geometry" />
        </mxCell>
        <mxCell id="A00SN344eLhmjXgvaw5U-135" style="edgeStyle=orthogonalEdgeStyle;shape=connector;rounded=0;orthogonalLoop=1;jettySize=auto;html=1;exitX=0.25;exitY=0;exitDx=0;exitDy=0;strokeColor=default;align=center;verticalAlign=middle;fontFamily=Helvetica;fontSize=11;fontColor=default;labelBackgroundColor=default;startFill=0;endArrow=none;" edge="1" parent="1" source="A00SN344eLhmjXgvaw5U-44" target="A00SN344eLhmjXgvaw5U-103">
          <mxGeometry relative="1" as="geometry" />
        </mxCell>
        <mxCell id="A00SN344eLhmjXgvaw5U-136" style="edgeStyle=orthogonalEdgeStyle;shape=connector;rounded=0;orthogonalLoop=1;jettySize=auto;html=1;exitX=0;exitY=0.5;exitDx=0;exitDy=0;strokeColor=default;align=center;verticalAlign=middle;fontFamily=Helvetica;fontSize=11;fontColor=default;labelBackgroundColor=default;startFill=0;endArrow=none;" edge="1" parent="1" source="A00SN344eLhmjXgvaw5U-44" target="A00SN344eLhmjXgvaw5U-104">
          <mxGeometry relative="1" as="geometry" />
        </mxCell>
        <mxCell id="A00SN344eLhmjXgvaw5U-44" value="Section" style="rounded=0;whiteSpace=wrap;html=1;" vertex="1" parent="1">
          <mxGeometry x="370" y="130" width="120" height="60" as="geometry" />
        </mxCell>
        <mxCell id="A00SN344eLhmjXgvaw5U-56" style="edgeStyle=orthogonalEdgeStyle;shape=connector;rounded=0;orthogonalLoop=1;jettySize=auto;html=1;exitX=0;exitY=0.5;exitDx=0;exitDy=0;strokeColor=default;align=center;verticalAlign=middle;fontFamily=Helvetica;fontSize=11;fontColor=default;labelBackgroundColor=default;startFill=0;endArrow=none;" edge="1" parent="1" source="A00SN344eLhmjXgvaw5U-46" target="A00SN344eLhmjXgvaw5U-12">
          <mxGeometry relative="1" as="geometry" />
        </mxCell>
        <mxCell id="A00SN344eLhmjXgvaw5U-46" value="&lt;u&gt;Qualifi_ID&lt;/u&gt;" style="ellipse;whiteSpace=wrap;html=1;fontFamily=Helvetica;fontSize=11;fontColor=default;labelBackgroundColor=default;" vertex="1" parent="1">
          <mxGeometry x="1290" y="-820" width="120" height="80" as="geometry" />
        </mxCell>
        <mxCell id="A00SN344eLhmjXgvaw5U-54" style="edgeStyle=orthogonalEdgeStyle;shape=connector;rounded=0;orthogonalLoop=1;jettySize=auto;html=1;exitX=0;exitY=1;exitDx=0;exitDy=0;entryX=0.25;entryY=0;entryDx=0;entryDy=0;strokeColor=default;align=center;verticalAlign=middle;fontFamily=Helvetica;fontSize=11;fontColor=default;labelBackgroundColor=default;startFill=0;endArrow=none;" edge="1" parent="1" source="A00SN344eLhmjXgvaw5U-48" target="A00SN344eLhmjXgvaw5U-12">
          <mxGeometry relative="1" as="geometry" />
        </mxCell>
        <mxCell id="A00SN344eLhmjXgvaw5U-48" value="SpecializedTraining" style="ellipse;whiteSpace=wrap;html=1;fontFamily=Helvetica;fontSize=11;fontColor=default;labelBackgroundColor=default;" vertex="1" parent="1">
          <mxGeometry x="1180" y="-1040" width="120" height="80" as="geometry" />
        </mxCell>
        <mxCell id="A00SN344eLhmjXgvaw5U-55" style="edgeStyle=orthogonalEdgeStyle;shape=connector;rounded=0;orthogonalLoop=1;jettySize=auto;html=1;exitX=0;exitY=0.5;exitDx=0;exitDy=0;entryX=0.75;entryY=0;entryDx=0;entryDy=0;strokeColor=default;align=center;verticalAlign=middle;fontFamily=Helvetica;fontSize=11;fontColor=default;labelBackgroundColor=default;startFill=0;endArrow=none;" edge="1" parent="1" source="A00SN344eLhmjXgvaw5U-49" target="A00SN344eLhmjXgvaw5U-12">
          <mxGeometry relative="1" as="geometry" />
        </mxCell>
        <mxCell id="A00SN344eLhmjXgvaw5U-49" value="TrainingInstitue" style="ellipse;whiteSpace=wrap;html=1;fontFamily=Helvetica;fontSize=11;fontColor=default;labelBackgroundColor=default;" vertex="1" parent="1">
          <mxGeometry x="1310" y="-950" width="120" height="80" as="geometry" />
        </mxCell>
        <mxCell id="A00SN344eLhmjXgvaw5U-52" style="edgeStyle=orthogonalEdgeStyle;shape=connector;rounded=0;orthogonalLoop=1;jettySize=auto;html=1;exitX=0.5;exitY=1;exitDx=0;exitDy=0;entryX=0;entryY=0.25;entryDx=0;entryDy=0;strokeColor=default;align=center;verticalAlign=middle;fontFamily=Helvetica;fontSize=11;fontColor=default;labelBackgroundColor=default;startFill=0;endArrow=none;" edge="1" parent="1" source="A00SN344eLhmjXgvaw5U-50" target="A00SN344eLhmjXgvaw5U-12">
          <mxGeometry relative="1" as="geometry" />
        </mxCell>
        <mxCell id="A00SN344eLhmjXgvaw5U-50" value="GraduationYear" style="ellipse;whiteSpace=wrap;html=1;fontFamily=Helvetica;fontSize=11;fontColor=default;labelBackgroundColor=default;" vertex="1" parent="1">
          <mxGeometry x="1030" y="-1030" width="120" height="80" as="geometry" />
        </mxCell>
        <mxCell id="A00SN344eLhmjXgvaw5U-51" value="&lt;span&gt;Ins_ID&lt;/span&gt;" style="ellipse;whiteSpace=wrap;html=1;fontStyle=0" vertex="1" parent="1">
          <mxGeometry x="1240" y="-690" width="100" height="80" as="geometry" />
        </mxCell>
        <mxCell id="A00SN344eLhmjXgvaw5U-60" style="edgeStyle=orthogonalEdgeStyle;shape=connector;rounded=0;orthogonalLoop=1;jettySize=auto;html=1;exitX=1;exitY=0.5;exitDx=0;exitDy=0;entryX=0.25;entryY=1;entryDx=0;entryDy=0;strokeColor=default;align=center;verticalAlign=middle;fontFamily=Helvetica;fontSize=11;fontColor=default;labelBackgroundColor=default;startFill=0;endArrow=none;" edge="1" parent="1" source="A00SN344eLhmjXgvaw5U-53" target="A00SN344eLhmjXgvaw5U-12">
          <mxGeometry relative="1" as="geometry" />
        </mxCell>
        <mxCell id="A00SN344eLhmjXgvaw5U-53" value="Has" style="rhombus;whiteSpace=wrap;html=1;" vertex="1" parent="1">
          <mxGeometry x="930" y="-800" width="80" height="80" as="geometry" />
        </mxCell>
        <mxCell id="A00SN344eLhmjXgvaw5U-57" style="edgeStyle=orthogonalEdgeStyle;shape=connector;rounded=0;orthogonalLoop=1;jettySize=auto;html=1;exitX=0;exitY=0;exitDx=0;exitDy=0;entryX=0.667;entryY=1;entryDx=0;entryDy=0;entryPerimeter=0;strokeColor=default;align=center;verticalAlign=middle;fontFamily=Helvetica;fontSize=11;fontColor=default;labelBackgroundColor=default;startFill=0;endArrow=none;" edge="1" parent="1" source="A00SN344eLhmjXgvaw5U-51" target="A00SN344eLhmjXgvaw5U-12">
          <mxGeometry relative="1" as="geometry" />
        </mxCell>
        <mxCell id="A00SN344eLhmjXgvaw5U-68" style="edgeStyle=orthogonalEdgeStyle;shape=connector;rounded=0;orthogonalLoop=1;jettySize=auto;html=1;exitX=0;exitY=0.25;exitDx=0;exitDy=0;entryX=1;entryY=1;entryDx=0;entryDy=0;strokeColor=default;align=center;verticalAlign=middle;fontFamily=Helvetica;fontSize=11;fontColor=default;labelBackgroundColor=default;startFill=0;endArrow=none;" edge="1" parent="1" source="A00SN344eLhmjXgvaw5U-61" target="A00SN344eLhmjXgvaw5U-65">
          <mxGeometry relative="1" as="geometry" />
        </mxCell>
        <mxCell id="A00SN344eLhmjXgvaw5U-69" style="edgeStyle=orthogonalEdgeStyle;shape=connector;rounded=0;orthogonalLoop=1;jettySize=auto;html=1;exitX=0;exitY=0.5;exitDx=0;exitDy=0;strokeColor=default;align=center;verticalAlign=middle;fontFamily=Helvetica;fontSize=11;fontColor=default;labelBackgroundColor=default;startFill=0;endArrow=none;" edge="1" parent="1" source="A00SN344eLhmjXgvaw5U-61" target="A00SN344eLhmjXgvaw5U-62">
          <mxGeometry relative="1" as="geometry" />
        </mxCell>
        <mxCell id="A00SN344eLhmjXgvaw5U-70" style="edgeStyle=orthogonalEdgeStyle;shape=connector;rounded=0;orthogonalLoop=1;jettySize=auto;html=1;exitX=0;exitY=1;exitDx=0;exitDy=0;strokeColor=default;align=center;verticalAlign=middle;fontFamily=Helvetica;fontSize=11;fontColor=default;labelBackgroundColor=default;startFill=0;endArrow=none;" edge="1" parent="1" source="A00SN344eLhmjXgvaw5U-61" target="A00SN344eLhmjXgvaw5U-63">
          <mxGeometry relative="1" as="geometry" />
        </mxCell>
        <mxCell id="A00SN344eLhmjXgvaw5U-71" style="edgeStyle=orthogonalEdgeStyle;shape=connector;rounded=0;orthogonalLoop=1;jettySize=auto;html=1;exitX=0.5;exitY=1;exitDx=0;exitDy=0;entryX=0.5;entryY=0;entryDx=0;entryDy=0;strokeColor=default;align=center;verticalAlign=middle;fontFamily=Helvetica;fontSize=11;fontColor=default;labelBackgroundColor=default;startFill=0;endArrow=none;" edge="1" parent="1" source="A00SN344eLhmjXgvaw5U-61" target="A00SN344eLhmjXgvaw5U-66">
          <mxGeometry relative="1" as="geometry" />
        </mxCell>
        <mxCell id="A00SN344eLhmjXgvaw5U-72" style="edgeStyle=orthogonalEdgeStyle;shape=connector;rounded=0;orthogonalLoop=1;jettySize=auto;html=1;exitX=1;exitY=1;exitDx=0;exitDy=0;entryX=0;entryY=0.5;entryDx=0;entryDy=0;strokeColor=default;align=center;verticalAlign=middle;fontFamily=Helvetica;fontSize=11;fontColor=default;labelBackgroundColor=default;startFill=0;endArrow=none;" edge="1" parent="1" source="A00SN344eLhmjXgvaw5U-61" target="A00SN344eLhmjXgvaw5U-64">
          <mxGeometry relative="1" as="geometry" />
        </mxCell>
        <mxCell id="A00SN344eLhmjXgvaw5U-73" style="edgeStyle=orthogonalEdgeStyle;shape=connector;rounded=0;orthogonalLoop=1;jettySize=auto;html=1;exitX=1;exitY=0.25;exitDx=0;exitDy=0;entryX=0.5;entryY=1;entryDx=0;entryDy=0;strokeColor=default;align=center;verticalAlign=middle;fontFamily=Helvetica;fontSize=11;fontColor=default;labelBackgroundColor=default;startFill=0;endArrow=none;" edge="1" parent="1" source="A00SN344eLhmjXgvaw5U-61" target="A00SN344eLhmjXgvaw5U-67">
          <mxGeometry relative="1" as="geometry" />
        </mxCell>
        <mxCell id="A00SN344eLhmjXgvaw5U-61" value="&lt;span id=&quot;docs-internal-guid-3f4176cd-7fff-1d77-9f5c-07f159ecbebb&quot;&gt;&lt;span style=&quot;font-size: 11pt; color: rgb(0, 0, 0); background-color: transparent; font-variant-numeric: normal; font-variant-east-asian: normal; font-variant-alternates: normal; font-variant-position: normal; font-variant-emoji: normal; vertical-align: baseline; white-space-collapse: preserve;&quot;&gt;&lt;font face=&quot;Helvetica&quot;&gt;Subject&lt;/font&gt;&lt;/span&gt;&lt;/span&gt;" style="rounded=0;whiteSpace=wrap;html=1;" vertex="1" parent="1">
          <mxGeometry x="380" y="-390" width="120" height="60" as="geometry" />
        </mxCell>
        <mxCell id="A00SN344eLhmjXgvaw5U-62" value="&lt;u&gt;Sub_ID&lt;/u&gt;" style="ellipse;whiteSpace=wrap;html=1;" vertex="1" parent="1">
          <mxGeometry x="190" y="-370" width="100" height="80" as="geometry" />
        </mxCell>
        <mxCell id="A00SN344eLhmjXgvaw5U-63" value="Name" style="ellipse;whiteSpace=wrap;html=1;" vertex="1" parent="1">
          <mxGeometry x="270" y="-270" width="100" height="80" as="geometry" />
        </mxCell>
        <mxCell id="A00SN344eLhmjXgvaw5U-64" value="TotalCredit" style="ellipse;whiteSpace=wrap;html=1;" vertex="1" parent="1">
          <mxGeometry x="540" y="-330" width="100" height="80" as="geometry" />
        </mxCell>
        <mxCell id="A00SN344eLhmjXgvaw5U-65" value="CreditTheory" style="ellipse;whiteSpace=wrap;html=1;" vertex="1" parent="1">
          <mxGeometry x="250" y="-490" width="100" height="80" as="geometry" />
        </mxCell>
        <mxCell id="A00SN344eLhmjXgvaw5U-66" value="PracticeCredit" style="ellipse;whiteSpace=wrap;html=1;" vertex="1" parent="1">
          <mxGeometry x="410" y="-260" width="100" height="80" as="geometry" />
        </mxCell>
        <mxCell id="A00SN344eLhmjXgvaw5U-67" value="PrerequisiteSubjects_ID" style="ellipse;whiteSpace=wrap;html=1;" vertex="1" parent="1">
          <mxGeometry x="530" y="-480" width="140" height="90" as="geometry" />
        </mxCell>
        <mxCell id="A00SN344eLhmjXgvaw5U-76" style="edgeStyle=orthogonalEdgeStyle;shape=connector;rounded=0;orthogonalLoop=1;jettySize=auto;html=1;exitX=0;exitY=1;exitDx=0;exitDy=0;strokeColor=default;align=center;verticalAlign=middle;fontFamily=Helvetica;fontSize=11;fontColor=default;labelBackgroundColor=default;startFill=0;endArrow=none;" edge="1" parent="1" source="A00SN344eLhmjXgvaw5U-74" target="A00SN344eLhmjXgvaw5U-61">
          <mxGeometry relative="1" as="geometry" />
        </mxCell>
        <mxCell id="A00SN344eLhmjXgvaw5U-74" value="Teach" style="rhombus;whiteSpace=wrap;html=1;" vertex="1" parent="1">
          <mxGeometry x="540" y="-610" width="80" height="80" as="geometry" />
        </mxCell>
        <mxCell id="A00SN344eLhmjXgvaw5U-114" style="edgeStyle=orthogonalEdgeStyle;shape=connector;rounded=0;orthogonalLoop=1;jettySize=auto;html=1;exitX=1;exitY=0.25;exitDx=0;exitDy=0;strokeColor=default;align=center;verticalAlign=middle;fontFamily=Helvetica;fontSize=11;fontColor=default;labelBackgroundColor=default;startFill=0;endArrow=none;" edge="1" parent="1" source="A00SN344eLhmjXgvaw5U-77" target="A00SN344eLhmjXgvaw5U-78">
          <mxGeometry relative="1" as="geometry" />
        </mxCell>
        <mxCell id="A00SN344eLhmjXgvaw5U-77" value="&lt;span id=&quot;docs-internal-guid-3f4176cd-7fff-1d77-9f5c-07f159ecbebb&quot;&gt;&lt;span style=&quot;font-size: 11pt; color: rgb(0, 0, 0); background-color: transparent; font-variant-numeric: normal; font-variant-east-asian: normal; font-variant-alternates: normal; font-variant-position: normal; font-variant-emoji: normal; vertical-align: baseline; white-space-collapse: preserve;&quot;&gt;&lt;font face=&quot;Helvetica&quot;&gt;Classes&lt;/font&gt;&lt;/span&gt;&lt;/span&gt;" style="rounded=0;whiteSpace=wrap;html=1;" vertex="1" parent="1">
          <mxGeometry x="880" y="-440" width="120" height="60" as="geometry" />
        </mxCell>
        <mxCell id="A00SN344eLhmjXgvaw5U-78" value="&lt;u&gt;Class_ID&lt;/u&gt;" style="ellipse;whiteSpace=wrap;html=1;" vertex="1" parent="1">
          <mxGeometry x="1020" y="-370" width="100" height="80" as="geometry" />
        </mxCell>
        <mxCell id="A00SN344eLhmjXgvaw5U-112" style="shape=connector;rounded=0;orthogonalLoop=1;jettySize=auto;html=1;exitX=0.5;exitY=0;exitDx=0;exitDy=0;entryX=0.5;entryY=1;entryDx=0;entryDy=0;strokeColor=default;align=center;verticalAlign=middle;fontFamily=Helvetica;fontSize=11;fontColor=default;labelBackgroundColor=default;startFill=0;endArrow=none;" edge="1" parent="1" source="A00SN344eLhmjXgvaw5U-79" target="A00SN344eLhmjXgvaw5U-77">
          <mxGeometry relative="1" as="geometry" />
        </mxCell>
        <mxCell id="A00SN344eLhmjXgvaw5U-79" value="Coursework_Program" style="ellipse;whiteSpace=wrap;html=1;" vertex="1" parent="1">
          <mxGeometry x="900" y="-320" width="120" height="90" as="geometry" />
        </mxCell>
        <mxCell id="A00SN344eLhmjXgvaw5U-117" style="shape=connector;rounded=0;orthogonalLoop=1;jettySize=auto;html=1;exitX=0.5;exitY=0;exitDx=0;exitDy=0;entryX=1;entryY=0.75;entryDx=0;entryDy=0;strokeColor=default;align=center;verticalAlign=middle;fontFamily=Helvetica;fontSize=11;fontColor=default;labelBackgroundColor=default;startFill=0;endArrow=none;" edge="1" parent="1" source="A00SN344eLhmjXgvaw5U-81" target="A00SN344eLhmjXgvaw5U-11">
          <mxGeometry relative="1" as="geometry" />
        </mxCell>
        <mxCell id="A00SN344eLhmjXgvaw5U-118" style="edgeStyle=orthogonalEdgeStyle;shape=connector;rounded=0;orthogonalLoop=1;jettySize=auto;html=1;exitX=0.5;exitY=1;exitDx=0;exitDy=0;strokeColor=default;align=center;verticalAlign=middle;fontFamily=Helvetica;fontSize=11;fontColor=default;labelBackgroundColor=default;startFill=0;endArrow=none;" edge="1" parent="1" source="A00SN344eLhmjXgvaw5U-81" target="A00SN344eLhmjXgvaw5U-77">
          <mxGeometry relative="1" as="geometry" />
        </mxCell>
        <mxCell id="A00SN344eLhmjXgvaw5U-81" value="supervised by" style="rhombus;whiteSpace=wrap;html=1;" vertex="1" parent="1">
          <mxGeometry x="895" y="-615" width="90" height="90" as="geometry" />
        </mxCell>
        <mxCell id="A00SN344eLhmjXgvaw5U-93" style="edgeStyle=orthogonalEdgeStyle;shape=connector;rounded=0;orthogonalLoop=1;jettySize=auto;html=1;exitX=0.5;exitY=0;exitDx=0;exitDy=0;entryX=0.5;entryY=1;entryDx=0;entryDy=0;strokeColor=default;align=center;verticalAlign=middle;fontFamily=Helvetica;fontSize=11;fontColor=default;labelBackgroundColor=default;startFill=0;endArrow=none;" edge="1" parent="1" source="A00SN344eLhmjXgvaw5U-83" target="A00SN344eLhmjXgvaw5U-92">
          <mxGeometry relative="1" as="geometry" />
        </mxCell>
        <mxCell id="A00SN344eLhmjXgvaw5U-94" style="edgeStyle=orthogonalEdgeStyle;shape=connector;rounded=0;orthogonalLoop=1;jettySize=auto;html=1;exitX=1;exitY=0;exitDx=0;exitDy=0;strokeColor=default;align=center;verticalAlign=middle;fontFamily=Helvetica;fontSize=11;fontColor=default;labelBackgroundColor=default;startFill=0;endArrow=none;" edge="1" parent="1" source="A00SN344eLhmjXgvaw5U-83" target="A00SN344eLhmjXgvaw5U-85">
          <mxGeometry relative="1" as="geometry" />
        </mxCell>
        <mxCell id="A00SN344eLhmjXgvaw5U-95" style="edgeStyle=orthogonalEdgeStyle;shape=connector;rounded=0;orthogonalLoop=1;jettySize=auto;html=1;exitX=1;exitY=0.5;exitDx=0;exitDy=0;entryX=0;entryY=0.5;entryDx=0;entryDy=0;strokeColor=default;align=center;verticalAlign=middle;fontFamily=Helvetica;fontSize=11;fontColor=default;labelBackgroundColor=default;startFill=0;endArrow=none;" edge="1" parent="1" source="A00SN344eLhmjXgvaw5U-83" target="A00SN344eLhmjXgvaw5U-84">
          <mxGeometry relative="1" as="geometry" />
        </mxCell>
        <mxCell id="A00SN344eLhmjXgvaw5U-96" style="edgeStyle=orthogonalEdgeStyle;shape=connector;rounded=0;orthogonalLoop=1;jettySize=auto;html=1;exitX=1;exitY=1;exitDx=0;exitDy=0;entryX=0.5;entryY=0;entryDx=0;entryDy=0;strokeColor=default;align=center;verticalAlign=middle;fontFamily=Helvetica;fontSize=11;fontColor=default;labelBackgroundColor=default;startFill=0;endArrow=none;" edge="1" parent="1" source="A00SN344eLhmjXgvaw5U-83" target="A00SN344eLhmjXgvaw5U-86">
          <mxGeometry relative="1" as="geometry" />
        </mxCell>
        <mxCell id="A00SN344eLhmjXgvaw5U-97" style="edgeStyle=orthogonalEdgeStyle;shape=connector;rounded=0;orthogonalLoop=1;jettySize=auto;html=1;exitX=0.75;exitY=1;exitDx=0;exitDy=0;entryX=0.5;entryY=0;entryDx=0;entryDy=0;strokeColor=default;align=center;verticalAlign=middle;fontFamily=Helvetica;fontSize=11;fontColor=default;labelBackgroundColor=default;startFill=0;endArrow=none;" edge="1" parent="1" source="A00SN344eLhmjXgvaw5U-83" target="A00SN344eLhmjXgvaw5U-87">
          <mxGeometry relative="1" as="geometry" />
        </mxCell>
        <mxCell id="A00SN344eLhmjXgvaw5U-98" style="edgeStyle=orthogonalEdgeStyle;shape=connector;rounded=0;orthogonalLoop=1;jettySize=auto;html=1;exitX=0.5;exitY=1;exitDx=0;exitDy=0;strokeColor=default;align=center;verticalAlign=middle;fontFamily=Helvetica;fontSize=11;fontColor=default;labelBackgroundColor=default;startFill=0;endArrow=none;" edge="1" parent="1" source="A00SN344eLhmjXgvaw5U-83" target="A00SN344eLhmjXgvaw5U-88">
          <mxGeometry relative="1" as="geometry" />
        </mxCell>
        <mxCell id="A00SN344eLhmjXgvaw5U-100" style="edgeStyle=orthogonalEdgeStyle;shape=connector;rounded=0;orthogonalLoop=1;jettySize=auto;html=1;exitX=0;exitY=0.75;exitDx=0;exitDy=0;entryX=1;entryY=0.5;entryDx=0;entryDy=0;strokeColor=default;align=center;verticalAlign=middle;fontFamily=Helvetica;fontSize=11;fontColor=default;labelBackgroundColor=default;startFill=0;endArrow=none;" edge="1" parent="1" source="A00SN344eLhmjXgvaw5U-83" target="A00SN344eLhmjXgvaw5U-89">
          <mxGeometry relative="1" as="geometry" />
        </mxCell>
        <mxCell id="A00SN344eLhmjXgvaw5U-101" style="edgeStyle=orthogonalEdgeStyle;shape=connector;rounded=0;orthogonalLoop=1;jettySize=auto;html=1;exitX=0;exitY=0;exitDx=0;exitDy=0;entryX=1;entryY=1;entryDx=0;entryDy=0;strokeColor=default;align=center;verticalAlign=middle;fontFamily=Helvetica;fontSize=11;fontColor=default;labelBackgroundColor=default;startFill=0;endArrow=none;" edge="1" parent="1" source="A00SN344eLhmjXgvaw5U-83" target="A00SN344eLhmjXgvaw5U-91">
          <mxGeometry relative="1" as="geometry" />
        </mxCell>
        <mxCell id="A00SN344eLhmjXgvaw5U-83" value="Students" style="rounded=0;whiteSpace=wrap;html=1;" vertex="1" parent="1">
          <mxGeometry x="1420" y="-360" width="120" height="60" as="geometry" />
        </mxCell>
        <mxCell id="A00SN344eLhmjXgvaw5U-84" value="&lt;span&gt;&lt;u&gt;Student_ID&lt;/u&gt;&lt;/span&gt;" style="ellipse;whiteSpace=wrap;html=1;fontStyle=0" vertex="1" parent="1">
          <mxGeometry x="1610" y="-380" width="100" height="80" as="geometry" />
        </mxCell>
        <mxCell id="A00SN344eLhmjXgvaw5U-85" value="Name" style="ellipse;whiteSpace=wrap;html=1;" vertex="1" parent="1">
          <mxGeometry x="1580" y="-500" width="100" height="80" as="geometry" />
        </mxCell>
        <mxCell id="A00SN344eLhmjXgvaw5U-86" value="SSN" style="ellipse;whiteSpace=wrap;html=1;" vertex="1" parent="1">
          <mxGeometry x="1590" y="-250" width="100" height="80" as="geometry" />
        </mxCell>
        <mxCell id="A00SN344eLhmjXgvaw5U-87" value="Current_Address" style="ellipse;whiteSpace=wrap;html=1;" vertex="1" parent="1">
          <mxGeometry x="1480" y="-220" width="100" height="80" as="geometry" />
        </mxCell>
        <mxCell id="A00SN344eLhmjXgvaw5U-88" value="Current_Phone" style="ellipse;whiteSpace=wrap;html=1;" vertex="1" parent="1">
          <mxGeometry x="1360" y="-210" width="100" height="80" as="geometry" />
        </mxCell>
        <mxCell id="A00SN344eLhmjXgvaw5U-89" value="Pernament_Address" style="ellipse;whiteSpace=wrap;html=1;" vertex="1" parent="1">
          <mxGeometry x="1210" y="-400" width="120" height="90" as="geometry" />
        </mxCell>
        <mxCell id="A00SN344eLhmjXgvaw5U-90" value="Pernament_Phone" style="ellipse;whiteSpace=wrap;html=1;" vertex="1" parent="1">
          <mxGeometry x="1250" y="-300" width="120" height="90" as="geometry" />
        </mxCell>
        <mxCell id="A00SN344eLhmjXgvaw5U-91" value="Birthday" style="ellipse;whiteSpace=wrap;html=1;" vertex="1" parent="1">
          <mxGeometry x="1310" y="-530" width="100" height="80" as="geometry" />
        </mxCell>
        <mxCell id="A00SN344eLhmjXgvaw5U-92" value="Sex" style="ellipse;whiteSpace=wrap;html=1;" vertex="1" parent="1">
          <mxGeometry x="1440" y="-520" width="100" height="80" as="geometry" />
        </mxCell>
        <mxCell id="A00SN344eLhmjXgvaw5U-99" style="edgeStyle=orthogonalEdgeStyle;shape=connector;rounded=0;orthogonalLoop=1;jettySize=auto;html=1;exitX=0.25;exitY=1;exitDx=0;exitDy=0;entryX=0.994;entryY=0.301;entryDx=0;entryDy=0;entryPerimeter=0;strokeColor=default;align=center;verticalAlign=middle;fontFamily=Helvetica;fontSize=11;fontColor=default;labelBackgroundColor=default;startFill=0;endArrow=none;" edge="1" parent="1" source="A00SN344eLhmjXgvaw5U-83" target="A00SN344eLhmjXgvaw5U-90">
          <mxGeometry relative="1" as="geometry" />
        </mxCell>
        <mxCell id="A00SN344eLhmjXgvaw5U-102" value="&lt;u&gt;Section_ID&lt;/u&gt;" style="ellipse;whiteSpace=wrap;html=1;" vertex="1" parent="1">
          <mxGeometry x="330" y="230" width="100" height="80" as="geometry" />
        </mxCell>
        <mxCell id="A00SN344eLhmjXgvaw5U-103" value="SemesterNumber" style="ellipse;whiteSpace=wrap;html=1;" vertex="1" parent="1">
          <mxGeometry x="230" y="70" width="100" height="80" as="geometry" />
        </mxCell>
        <mxCell id="A00SN344eLhmjXgvaw5U-104" value="TrainingYear" style="ellipse;whiteSpace=wrap;html=1;" vertex="1" parent="1">
          <mxGeometry x="220" y="180" width="100" height="80" as="geometry" />
        </mxCell>
        <mxCell id="A00SN344eLhmjXgvaw5U-113" style="edgeStyle=orthogonalEdgeStyle;shape=connector;rounded=0;orthogonalLoop=1;jettySize=auto;html=1;exitX=0.5;exitY=0;exitDx=0;exitDy=0;entryX=0;entryY=0.25;entryDx=0;entryDy=0;strokeColor=default;align=center;verticalAlign=middle;fontFamily=Helvetica;fontSize=11;fontColor=default;labelBackgroundColor=default;startFill=0;endArrow=none;" edge="1" parent="1" source="A00SN344eLhmjXgvaw5U-105" target="A00SN344eLhmjXgvaw5U-77">
          <mxGeometry relative="1" as="geometry" />
        </mxCell>
        <mxCell id="A00SN344eLhmjXgvaw5U-105" value="AcademicSupervisor_ID" style="ellipse;whiteSpace=wrap;html=1;" vertex="1" parent="1">
          <mxGeometry x="690" y="-410" width="130" height="100" as="geometry" />
        </mxCell>
        <mxCell id="A00SN344eLhmjXgvaw5U-107" style="edgeStyle=orthogonalEdgeStyle;shape=connector;rounded=0;orthogonalLoop=1;jettySize=auto;html=1;exitX=0;exitY=0.5;exitDx=0;exitDy=0;entryX=0.25;entryY=0;entryDx=0;entryDy=0;strokeColor=default;align=center;verticalAlign=middle;fontFamily=Helvetica;fontSize=11;fontColor=default;labelBackgroundColor=default;startFill=0;endArrow=none;" edge="1" parent="1" source="A00SN344eLhmjXgvaw5U-106" target="A00SN344eLhmjXgvaw5U-61">
          <mxGeometry relative="1" as="geometry" />
        </mxCell>
        <mxCell id="A00SN344eLhmjXgvaw5U-108" style="edgeStyle=orthogonalEdgeStyle;shape=connector;rounded=0;orthogonalLoop=1;jettySize=auto;html=1;exitX=0.5;exitY=0;exitDx=0;exitDy=0;entryX=1;entryY=0.75;entryDx=0;entryDy=0;strokeColor=default;align=center;verticalAlign=middle;fontFamily=Helvetica;fontSize=11;fontColor=default;labelBackgroundColor=default;startFill=0;endArrow=none;" edge="1" parent="1" source="A00SN344eLhmjXgvaw5U-106" target="g248kin0QG420hahuXNO-2">
          <mxGeometry relative="1" as="geometry" />
        </mxCell>
        <mxCell id="A00SN344eLhmjXgvaw5U-106" value="Contains" style="rhombus;whiteSpace=wrap;html=1;" vertex="1" parent="1">
          <mxGeometry x="420" y="-660" width="80" height="80" as="geometry" />
        </mxCell>
        <mxCell id="A00SN344eLhmjXgvaw5U-115" style="shape=connector;rounded=0;orthogonalLoop=1;jettySize=auto;html=1;exitX=1;exitY=0.5;exitDx=0;exitDy=0;entryX=0.5;entryY=0;entryDx=0;entryDy=0;strokeColor=default;align=center;verticalAlign=middle;fontFamily=Helvetica;fontSize=11;fontColor=default;labelBackgroundColor=default;startFill=0;endArrow=none;" edge="1" parent="1" source="A00SN344eLhmjXgvaw5U-110" target="A00SN344eLhmjXgvaw5U-77">
          <mxGeometry relative="1" as="geometry" />
        </mxCell>
        <mxCell id="A00SN344eLhmjXgvaw5U-116" style="shape=connector;rounded=0;orthogonalLoop=1;jettySize=auto;html=1;exitX=0;exitY=0;exitDx=0;exitDy=0;entryX=1;entryY=0.75;entryDx=0;entryDy=0;strokeColor=default;align=center;verticalAlign=middle;fontFamily=Helvetica;fontSize=11;fontColor=default;labelBackgroundColor=default;startFill=0;endArrow=none;" edge="1" parent="1" source="A00SN344eLhmjXgvaw5U-110" target="g248kin0QG420hahuXNO-2">
          <mxGeometry relative="1" as="geometry" />
        </mxCell>
        <mxCell id="A00SN344eLhmjXgvaw5U-110" value="Belong to" style="rhombus;whiteSpace=wrap;html=1;" vertex="1" parent="1">
          <mxGeometry x="740" y="-570" width="80" height="80" as="geometry" />
        </mxCell>
        <mxCell id="A00SN344eLhmjXgvaw5U-120" style="edgeStyle=orthogonalEdgeStyle;shape=connector;rounded=0;orthogonalLoop=1;jettySize=auto;html=1;exitX=0;exitY=0.5;exitDx=0;exitDy=0;entryX=1;entryY=0;entryDx=0;entryDy=0;strokeColor=default;align=center;verticalAlign=middle;fontFamily=Helvetica;fontSize=11;fontColor=default;labelBackgroundColor=default;startFill=0;endArrow=none;" edge="1" parent="1" source="A00SN344eLhmjXgvaw5U-119" target="A00SN344eLhmjXgvaw5U-77">
          <mxGeometry relative="1" as="geometry" />
        </mxCell>
        <mxCell id="A00SN344eLhmjXgvaw5U-121" style="shape=connector;rounded=0;orthogonalLoop=1;jettySize=auto;html=1;exitX=1;exitY=0.5;exitDx=0;exitDy=0;entryX=0;entryY=0.25;entryDx=0;entryDy=0;strokeColor=default;align=center;verticalAlign=middle;fontFamily=Helvetica;fontSize=11;fontColor=default;labelBackgroundColor=default;startFill=0;endArrow=none;" edge="1" parent="1" source="A00SN344eLhmjXgvaw5U-119" target="A00SN344eLhmjXgvaw5U-83">
          <mxGeometry relative="1" as="geometry" />
        </mxCell>
        <mxCell id="A00SN344eLhmjXgvaw5U-119" value="Includes" style="rhombus;whiteSpace=wrap;html=1;" vertex="1" parent="1">
          <mxGeometry x="1135" y="-540" width="90" height="90" as="geometry" />
        </mxCell>
        <mxCell id="A00SN344eLhmjXgvaw5U-137" style="shape=connector;rounded=0;orthogonalLoop=1;jettySize=auto;html=1;exitX=1;exitY=0;exitDx=0;exitDy=0;entryX=0;entryY=0.75;entryDx=0;entryDy=0;strokeColor=default;align=center;verticalAlign=middle;fontFamily=Helvetica;fontSize=11;fontColor=default;labelBackgroundColor=default;startFill=0;endArrow=none;" edge="1" parent="1" source="A00SN344eLhmjXgvaw5U-122" target="A00SN344eLhmjXgvaw5U-77">
          <mxGeometry relative="1" as="geometry" />
        </mxCell>
        <mxCell id="A00SN344eLhmjXgvaw5U-138" style="edgeStyle=orthogonalEdgeStyle;shape=connector;rounded=0;orthogonalLoop=1;jettySize=auto;html=1;exitX=0;exitY=0.5;exitDx=0;exitDy=0;entryX=0.5;entryY=0;entryDx=0;entryDy=0;strokeColor=default;align=center;verticalAlign=middle;fontFamily=Helvetica;fontSize=11;fontColor=default;labelBackgroundColor=default;startFill=0;endArrow=none;" edge="1" parent="1" source="A00SN344eLhmjXgvaw5U-122" target="A00SN344eLhmjXgvaw5U-44">
          <mxGeometry relative="1" as="geometry" />
        </mxCell>
        <mxCell id="A00SN344eLhmjXgvaw5U-122" value="arranged in" style="rhombus;whiteSpace=wrap;html=1;" vertex="1" parent="1">
          <mxGeometry x="535" y="-80" width="90" height="90" as="geometry" />
        </mxCell>
        <mxCell id="A00SN344eLhmjXgvaw5U-141" style="edgeStyle=orthogonalEdgeStyle;shape=connector;rounded=0;orthogonalLoop=1;jettySize=auto;html=1;exitX=1;exitY=0;exitDx=0;exitDy=0;entryX=0.5;entryY=0;entryDx=0;entryDy=0;strokeColor=default;align=center;verticalAlign=middle;fontFamily=Helvetica;fontSize=11;fontColor=default;labelBackgroundColor=default;startFill=0;endArrow=none;" edge="1" parent="1" source="A00SN344eLhmjXgvaw5U-123" target="A00SN344eLhmjXgvaw5U-128">
          <mxGeometry relative="1" as="geometry" />
        </mxCell>
        <mxCell id="A00SN344eLhmjXgvaw5U-142" style="edgeStyle=orthogonalEdgeStyle;shape=connector;rounded=0;orthogonalLoop=1;jettySize=auto;html=1;exitX=1;exitY=0.5;exitDx=0;exitDy=0;entryX=0;entryY=0.5;entryDx=0;entryDy=0;strokeColor=default;align=center;verticalAlign=middle;fontFamily=Helvetica;fontSize=11;fontColor=default;labelBackgroundColor=default;startFill=0;endArrow=none;" edge="1" parent="1" source="A00SN344eLhmjXgvaw5U-123" target="A00SN344eLhmjXgvaw5U-124">
          <mxGeometry relative="1" as="geometry" />
        </mxCell>
        <mxCell id="A00SN344eLhmjXgvaw5U-143" style="edgeStyle=orthogonalEdgeStyle;shape=connector;rounded=0;orthogonalLoop=1;jettySize=auto;html=1;exitX=0.75;exitY=1;exitDx=0;exitDy=0;entryX=1;entryY=0;entryDx=0;entryDy=0;strokeColor=default;align=center;verticalAlign=middle;fontFamily=Helvetica;fontSize=11;fontColor=default;labelBackgroundColor=default;startFill=0;endArrow=none;" edge="1" parent="1" source="A00SN344eLhmjXgvaw5U-123" target="A00SN344eLhmjXgvaw5U-125">
          <mxGeometry relative="1" as="geometry" />
        </mxCell>
        <mxCell id="A00SN344eLhmjXgvaw5U-144" style="edgeStyle=orthogonalEdgeStyle;shape=connector;rounded=0;orthogonalLoop=1;jettySize=auto;html=1;exitX=0.25;exitY=1;exitDx=0;exitDy=0;entryX=1;entryY=0;entryDx=0;entryDy=0;strokeColor=default;align=center;verticalAlign=middle;fontFamily=Helvetica;fontSize=11;fontColor=default;labelBackgroundColor=default;startFill=0;endArrow=none;" edge="1" parent="1" source="A00SN344eLhmjXgvaw5U-123" target="A00SN344eLhmjXgvaw5U-126">
          <mxGeometry relative="1" as="geometry" />
        </mxCell>
        <mxCell id="A00SN344eLhmjXgvaw5U-145" style="edgeStyle=orthogonalEdgeStyle;shape=connector;rounded=0;orthogonalLoop=1;jettySize=auto;html=1;exitX=0;exitY=0.5;exitDx=0;exitDy=0;entryX=1;entryY=0.5;entryDx=0;entryDy=0;strokeColor=default;align=center;verticalAlign=middle;fontFamily=Helvetica;fontSize=11;fontColor=default;labelBackgroundColor=default;startFill=0;endArrow=none;" edge="1" parent="1" source="A00SN344eLhmjXgvaw5U-123" target="A00SN344eLhmjXgvaw5U-127">
          <mxGeometry relative="1" as="geometry" />
        </mxCell>
        <mxCell id="A00SN344eLhmjXgvaw5U-123" value="&lt;span id=&quot;docs-internal-guid-3f4176cd-7fff-1d77-9f5c-07f159ecbebb&quot;&gt;&lt;span style=&quot;font-size: 11pt; color: rgb(0, 0, 0); background-color: transparent; font-variant-numeric: normal; font-variant-east-asian: normal; font-variant-alternates: normal; font-variant-position: normal; font-variant-emoji: normal; vertical-align: baseline; white-space-collapse: preserve;&quot;&gt;&lt;font face=&quot;Helvetica&quot;&gt;Grade_Report&lt;/font&gt;&lt;/span&gt;&lt;/span&gt;" style="rounded=0;whiteSpace=wrap;html=1;" vertex="1" parent="1">
          <mxGeometry x="1140" y="70" width="120" height="60" as="geometry" />
        </mxCell>
        <mxCell id="A00SN344eLhmjXgvaw5U-124" value="&lt;span&gt;Student_ID&lt;/span&gt;" style="ellipse;whiteSpace=wrap;html=1;fontStyle=0" vertex="1" parent="1">
          <mxGeometry x="1310" y="150" width="100" height="80" as="geometry" />
        </mxCell>
        <mxCell id="A00SN344eLhmjXgvaw5U-125" value="&lt;u&gt;Grade_Report_ID&lt;/u&gt;" style="ellipse;whiteSpace=wrap;html=1;" vertex="1" parent="1">
          <mxGeometry x="1160" y="190" width="120" height="90" as="geometry" />
        </mxCell>
        <mxCell id="A00SN344eLhmjXgvaw5U-126" value="Sub_ID" style="ellipse;whiteSpace=wrap;html=1;" vertex="1" parent="1">
          <mxGeometry x="1030" y="170" width="100" height="80" as="geometry" />
        </mxCell>
        <mxCell id="A00SN344eLhmjXgvaw5U-127" value="Theory_Grade" style="ellipse;whiteSpace=wrap;html=1;" vertex="1" parent="1">
          <mxGeometry x="980" y="70" width="100" height="80" as="geometry" />
        </mxCell>
        <mxCell id="A00SN344eLhmjXgvaw5U-128" value="Practice_Grade" style="ellipse;whiteSpace=wrap;html=1;" vertex="1" parent="1">
          <mxGeometry x="1320" y="50" width="100" height="80" as="geometry" />
        </mxCell>
        <mxCell id="A00SN344eLhmjXgvaw5U-140" style="edgeStyle=orthogonalEdgeStyle;shape=connector;rounded=0;orthogonalLoop=1;jettySize=auto;html=1;exitX=1;exitY=0.5;exitDx=0;exitDy=0;entryX=0;entryY=0;entryDx=0;entryDy=0;strokeColor=default;align=center;verticalAlign=middle;fontFamily=Helvetica;fontSize=11;fontColor=default;labelBackgroundColor=default;startFill=0;endArrow=none;" edge="1" parent="1" source="A00SN344eLhmjXgvaw5U-129" target="A00SN344eLhmjXgvaw5U-123">
          <mxGeometry relative="1" as="geometry" />
        </mxCell>
        <mxCell id="A00SN344eLhmjXgvaw5U-129" value="Total_Score" style="ellipse;whiteSpace=wrap;html=1;" vertex="1" parent="1">
          <mxGeometry x="1010" y="-30" width="100" height="80" as="geometry" />
        </mxCell>
        <mxCell id="A00SN344eLhmjXgvaw5U-130" value="Sub_ID" style="ellipse;whiteSpace=wrap;html=1;" vertex="1" parent="1">
          <mxGeometry x="460" y="230" width="100" height="80" as="geometry" />
        </mxCell>
        <mxCell id="A00SN344eLhmjXgvaw5U-131" value="Ins_ID" style="ellipse;whiteSpace=wrap;html=1;" vertex="1" parent="1">
          <mxGeometry x="550" y="130" width="100" height="80" as="geometry" />
        </mxCell>
        <mxCell id="A00SN344eLhmjXgvaw5U-146" style="shape=connector;rounded=0;orthogonalLoop=1;jettySize=auto;html=1;exitX=1;exitY=0;exitDx=0;exitDy=0;entryX=0;entryY=1;entryDx=0;entryDy=0;strokeColor=default;align=center;verticalAlign=middle;fontFamily=Helvetica;fontSize=11;fontColor=default;labelBackgroundColor=default;startFill=0;endArrow=none;" edge="1" parent="1" source="A00SN344eLhmjXgvaw5U-139" target="A00SN344eLhmjXgvaw5U-83">
          <mxGeometry relative="1" as="geometry" />
        </mxCell>
        <mxCell id="A00SN344eLhmjXgvaw5U-147" style="edgeStyle=orthogonalEdgeStyle;shape=connector;rounded=0;orthogonalLoop=1;jettySize=auto;html=1;exitX=0;exitY=1;exitDx=0;exitDy=0;strokeColor=default;align=center;verticalAlign=middle;fontFamily=Helvetica;fontSize=11;fontColor=default;labelBackgroundColor=default;startFill=0;endArrow=none;" edge="1" parent="1" source="A00SN344eLhmjXgvaw5U-139" target="A00SN344eLhmjXgvaw5U-123">
          <mxGeometry relative="1" as="geometry" />
        </mxCell>
        <mxCell id="A00SN344eLhmjXgvaw5U-139" value="has" style="rhombus;whiteSpace=wrap;html=1;" vertex="1" parent="1">
          <mxGeometry x="1200" y="-120" width="90" height="90" as="geometry" />
        </mxCell>
        <mxCell id="A00SN344eLhmjXgvaw5U-148" value="Ins_ID" style="ellipse;whiteSpace=wrap;html=1;" vertex="1" parent="1">
          <mxGeometry x="190" y="-770" width="100" height="80" as="geometry" />
        </mxCell>
        <mxCell id="A00SN344eLhmjXgvaw5U-151" style="shape=connector;rounded=0;orthogonalLoop=1;jettySize=auto;html=1;exitX=0.5;exitY=1;exitDx=0;exitDy=0;entryX=0.25;entryY=0;entryDx=0;entryDy=0;strokeColor=default;align=center;verticalAlign=middle;fontFamily=Helvetica;fontSize=11;fontColor=default;labelBackgroundColor=default;startFill=0;endArrow=none;" edge="1" parent="1" source="A00SN344eLhmjXgvaw5U-150" target="g248kin0QG420hahuXNO-2">
          <mxGeometry relative="1" as="geometry" />
        </mxCell>
        <mxCell id="A00SN344eLhmjXgvaw5U-150" value="StartDate" style="ellipse;whiteSpace=wrap;html=1;" vertex="1" parent="1">
          <mxGeometry x="310" y="-1040" width="100" height="80" as="geometry" />
        </mxCell>
        <mxCell id="A00SN344eLhmjXgvaw5U-153" style="shape=connector;rounded=0;orthogonalLoop=1;jettySize=auto;html=1;exitX=0;exitY=0.5;exitDx=0;exitDy=0;strokeColor=default;align=center;verticalAlign=middle;fontFamily=Helvetica;fontSize=11;fontColor=default;labelBackgroundColor=default;startFill=0;endArrow=none;" edge="1" parent="1" source="A00SN344eLhmjXgvaw5U-152" target="A00SN344eLhmjXgvaw5U-11">
          <mxGeometry relative="1" as="geometry" />
        </mxCell>
        <mxCell id="A00SN344eLhmjXgvaw5U-152" value="Qualification" style="ellipse;whiteSpace=wrap;html=1;" vertex="1" parent="1">
          <mxGeometry x="840" y="-870" width="100" height="80" as="geometry" />
        </mxCell>
        <mxCell id="A00SN344eLhmjXgvaw5U-155" style="shape=connector;rounded=0;orthogonalLoop=1;jettySize=auto;html=1;exitX=0.5;exitY=0;exitDx=0;exitDy=0;entryX=0.25;entryY=1;entryDx=0;entryDy=0;strokeColor=default;align=center;verticalAlign=middle;fontFamily=Helvetica;fontSize=11;fontColor=default;labelBackgroundColor=default;startFill=0;endArrow=none;" edge="1" parent="1" source="A00SN344eLhmjXgvaw5U-154" target="A00SN344eLhmjXgvaw5U-77">
          <mxGeometry relative="1" as="geometry" />
        </mxCell>
        <mxCell id="A00SN344eLhmjXgvaw5U-154" value="Dep_ID" style="ellipse;whiteSpace=wrap;html=1;" vertex="1" parent="1">
          <mxGeometry x="780" y="-290" width="100" height="80" as="geometry" />
        </mxCell>
      </root>
    </mxGraphModel>
  </diagram>
</mxfile>
